<?xml version="1.0" encoding="UTF-8"?>
<svg id="_レイヤー_2" data-name="レイヤー 2" xmlns="http://www.w3.org/2000/svg" viewBox="0 0 860 120.82">
  <defs>
    <style>
      .cls-1 {
        fill: #fff;
        stroke-width: 0px;
      }
    </style>
  </defs>
  <g id="_レイヤー_1-2" data-name="レイヤー 1">
    <g>
      <g>
        <g>
          <path class="cls-1" d="M31.54,111.73V22.25H6.55c-4.22,0-6.25-2.19-6.25-6.25V6.55C.31,2.33,2.33.31,6.55.31h77.32c4.22,0,6.25,2.03,6.25,6.25v9.45c0,4.05-2.03,6.25-6.25,6.25h-24.99v89.48c0,4.05-2.7,6.75-6.92,6.75h-13.51c-4.22,0-6.92-2.7-6.92-6.75Z"/>
          <path class="cls-1" d="M51.97,118.79h-13.51c-4.32,0-7.23-2.84-7.23-7.06V22.56H6.55c-4.29,0-6.55-2.27-6.55-6.55V6.55C0,2.14,2.14,0,6.55,0h77.32c4.41,0,6.55,2.14,6.55,6.55v9.45c0,4.29-2.27,6.55-6.55,6.55h-24.68v89.17c0,4.22-2.9,7.06-7.23,7.06ZM6.55.61C2.5.61.61,2.5.61,6.55v9.45c0,3.94,2,5.94,5.94,5.94h25.29v89.78c0,3.92,2.6,6.45,6.62,6.45h13.51c4.02,0,6.62-2.53,6.62-6.45V21.95h25.29c3.94,0,5.94-2,5.94-5.94V6.55c0-4.05-1.89-5.94-5.94-5.94H6.55Z"/>
        </g>
        <g>
          <path class="cls-1" d="M143.47,79.82c-2.87-4.39-4.05-6.92-4.05-10.8v-3.88c0-4.39,2.53-7.09,7.26-7.09h3.71c9.62,0,13.84-3.71,13.84-12.49v-11.99c0-8.78-4.22-12.66-13.84-12.66h-18.23v90.83c0,4.05-2.7,6.75-6.92,6.75h-13.17c-4.22,0-6.92-2.7-6.92-6.75V11.11c0-6.58,4.39-10.8,10.97-10.8h35.62c26,0,39.51,11.65,39.51,33.93v9.79c0,15.36-6.92,24.82-20.77,28.53l18.57,26.84c4.39,6.42,2.36,14.52-4.56,18.57-6.58,3.71-14.69,1.52-18.91-4.9l-22.12-33.26Z"/>
          <path class="cls-1" d="M177.68,120.09c-4.77,0-9.44-2.42-12.34-6.84l-22.12-33.26c-2.84-4.34-4.1-6.95-4.1-10.97v-3.88c0-4.7,2.76-7.4,7.57-7.4h3.71c9.49,0,13.54-3.65,13.54-12.19v-11.99c0-8.66-4.05-12.36-13.54-12.36h-17.93v90.52c0,4.22-2.9,7.06-7.23,7.06h-13.17c-4.32,0-7.23-2.84-7.23-7.06V11.11c0-6.75,4.43-11.11,11.28-11.11h35.62c26.04,0,39.81,11.84,39.81,34.24v9.79c0,15.24-6.92,24.89-20.57,28.71l18.33,26.49c2.11,3.09,2.85,6.69,2.07,10.16-.82,3.65-3.21,6.79-6.72,8.85-2.21,1.25-4.61,1.85-6.97,1.85ZM143.73,79.65l22.12,33.26c4.17,6.34,12.12,8.4,18.5,4.8,3.37-1.97,5.65-4.97,6.43-8.46.74-3.3.04-6.73-1.98-9.68l-18.82-27.2.42-.11c13.82-3.71,20.54-12.95,20.54-28.24v-9.79c0-11-3.33-19.45-9.9-25.09-6.59-5.66-16.45-8.54-29.3-8.54h-35.62c-6.48,0-10.67,4.12-10.67,10.5v100.62c0,3.92,2.6,6.45,6.62,6.45h13.17c4.02,0,6.62-2.53,6.62-6.45V20.6h18.54c9.79,0,14.15,4,14.15,12.97v11.99c0,8.85-4.36,12.8-14.15,12.8h-3.71c-4.42,0-6.95,2.47-6.95,6.79v3.88c0,3.86,1.23,6.4,4,10.64h0Z"/>
        </g>
        <g>
          <path class="cls-1" d="M205.94,83.37V7.06c0-4.05,2.53-6.75,6.75-6.75h13.68c4.05,0,6.75,2.7,6.75,6.75v76.99c0,10.3,4.9,15.53,14.69,15.53s14.69-5.23,14.69-15.53V7.06c0-4.05,2.7-6.75,6.75-6.75h13.67c4.22,0,6.75,2.7,6.75,6.75v76.31c0,23.64-15.19,37.14-41.87,37.14s-41.87-13.68-41.87-37.14Z"/>
          <path class="cls-1" d="M247.81,120.82c-13.07,0-23.82-3.41-31.08-9.85-7.26-6.45-11.1-15.99-11.1-27.6V7.06c0-4.29,2.77-7.06,7.06-7.06h13.68c4.22,0,7.06,2.84,7.06,7.06v76.99c0,10.1,4.84,15.23,14.38,15.23s14.38-5.12,14.38-15.23V7.06c0-4.22,2.84-7.06,7.06-7.06h13.67c4.29,0,7.06,2.77,7.06,7.06v76.31c0,23.8-15.37,37.45-42.17,37.45ZM212.69.61c-3.98,0-6.45,2.47-6.45,6.45v76.31c0,23.41,15.15,36.84,41.56,36.84s41.56-13.43,41.56-36.84V7.06c0-3.98-2.47-6.45-6.45-6.45h-13.67c-3.86,0-6.45,2.59-6.45,6.45v76.99c0,10.36-5.18,15.84-14.99,15.84s-14.99-5.33-14.99-15.84V7.06c0-3.86-2.59-6.45-6.45-6.45h-13.68Z"/>
        </g>
        <g>
          <path class="cls-1" d="M311.96,108.86V9.93c0-5.91,3.71-9.62,9.79-9.62h63.82c4.05,0,6.25,2.03,6.25,6.25v9.12c0,4.22-2.19,6.25-6.25,6.25h-46.43v25.49h33.43c6.75,0,11.14,3.88,11.14,10.64v.68c0,6.75-4.39,10.64-11.14,10.64h-33.43v27.52h46.43c4.05,0,6.25,2.03,6.25,6.25v9.12c0,4.22-2.19,6.25-6.25,6.25h-63.82c-6.08,0-9.79-3.71-9.79-9.62Z"/>
          <path class="cls-1" d="M385.57,118.79h-63.82c-6.23,0-10.1-3.8-10.1-9.93V9.93c0-6.12,3.87-9.93,10.1-9.93h63.82c4.29,0,6.55,2.27,6.55,6.55v9.12c0,4.29-2.27,6.55-6.55,6.55h-46.12v24.88h33.12c7.06,0,11.45,4.19,11.45,10.94v.68c0,6.75-4.39,10.94-11.45,10.94h-33.12v26.91h46.12c4.29,0,6.55,2.27,6.55,6.55v9.12c0,4.29-2.27,6.55-6.55,6.55ZM321.76.61c-5.85,0-9.49,3.57-9.49,9.32v98.93c0,5.75,3.64,9.32,9.49,9.32h63.82c3.94,0,5.94-2,5.94-5.94v-9.12c0-3.94-2-5.94-5.94-5.94h-46.73v-28.13h33.73c6.79,0,10.84-3.86,10.84-10.33v-.68c0-6.47-4.05-10.33-10.84-10.33h-33.73v-26.1h46.73c3.94,0,5.94-2,5.94-5.94V6.55c0-3.94-2-5.94-5.94-5.94h-63.82Z"/>
        </g>
        <g>
          <path class="cls-1" d="M411.91,113.08v-10.97c0-3.21,1.86-5.23,5.23-5.23h19.58V21.92h-19.58c-3.38,0-5.23-2.03-5.23-5.23V5.71c0-3.38,1.86-5.4,5.23-5.4h66.35c3.38,0,5.4,2.03,5.4,5.4v10.97c0,3.21-2.03,5.23-5.4,5.23h-19.42v74.96h19.42c3.38,0,5.4,2.03,5.4,5.23v10.97c0,3.38-2.03,5.4-5.4,5.4h-66.35c-3.38,0-5.23-2.03-5.23-5.4Z"/>
          <path class="cls-1" d="M483.49,118.79h-66.35c-3.47,0-5.54-2.13-5.54-5.71v-10.97c0-3.47,2.07-5.54,5.54-5.54h19.28V22.22h-19.28c-3.47,0-5.54-2.07-5.54-5.54V5.71c0-3.57,2.07-5.71,5.54-5.71h66.35c3.52,0,5.71,2.19,5.71,5.71v10.97c0,3.42-2.19,5.54-5.71,5.54h-19.11v74.35h19.11c3.52,0,5.71,2.12,5.71,5.54v10.97c0,3.52-2.19,5.71-5.71,5.71ZM417.14,97.18c-3.13,0-4.93,1.8-4.93,4.93v10.97c0,3.24,1.8,5.1,4.93,5.1h66.35c3.19,0,5.1-1.91,5.1-5.1v-10.97c0-3.09-1.91-4.93-5.1-4.93h-19.72V21.61h19.72c3.19,0,5.1-1.84,5.1-4.93V5.71c0-3.19-1.91-5.1-5.1-5.1h-66.35c-3.13,0-4.93,1.86-4.93,5.1v10.97c0,3.13,1.8,4.93,4.93,4.93h19.89v75.57h-19.89Z"/>
        </g>
        <g>
          <path class="cls-1" d="M509.83,108.86V9.93c0-5.91,3.55-9.62,9.62-9.62h28.87c30.56,0,46.76,14.69,46.76,42.21v33.77c0,27.52-16.21,42.21-46.76,42.21h-28.87c-6.08,0-9.62-3.71-9.62-9.62ZM548.15,97.55c13.34,0,19.58-6.08,19.58-19.41v-37.48c0-13.34-6.25-19.42-19.58-19.42h-11.14v76.31h11.14Z"/>
          <path class="cls-1" d="M548.32,118.79h-28.87c-6.12,0-9.93-3.8-9.93-9.93V9.93c0-6.12,3.8-9.93,9.93-9.93h28.87c30.79,0,47.07,14.7,47.07,42.51v33.77c0,27.81-16.28,42.51-47.07,42.51ZM519.45.61c-5.83,0-9.32,3.48-9.32,9.32v98.93c0,5.83,3.48,9.32,9.32,9.32h28.87c30.39,0,46.46-14.49,46.46-41.9v-33.77c0-27.41-16.07-41.9-46.46-41.9h-28.87ZM548.15,97.85h-11.45V20.93h11.45c13.57,0,19.89,6.27,19.89,19.72v37.48c0,13.45-6.32,19.72-19.89,19.72ZM537.32,97.24h10.84c13.15,0,19.28-6.07,19.28-19.11v-37.48c0-13.04-6.13-19.11-19.28-19.11h-10.84v75.7Z"/>
        </g>
      </g>
      <g>
        <g>
          <g>
            <path class="cls-1" d="M811.73,35.8h-64.15c-10.94,0-20.18,12.67-20.18,27.67h4.48c0-12.35,7.34-23.19,15.7-23.19h64.15c8.36,0,15.7,10.84,15.7,23.19h4.48c0-15-9.24-27.67-20.18-27.67Z"/>
            <path class="cls-1" d="M847,25.31c-9.06-11.18-21.92-17.59-35.27-17.59h-64.15c-13.35,0-26.21,6.41-35.27,17.59-8.38,10.35-13,23.9-13,38.16h4.48c0-28.28,19.64-51.28,43.79-51.28h64.15c24.15,0,43.79,23,43.79,51.28h4.48c0-14.26-4.62-27.82-13-38.16Z"/>
          </g>
          <g>
            <path class="cls-1" d="M638.96,62.85c0,15.26,12.41,27.67,27.67,27.67h49.17c15.26,0,27.67-12.41,27.67-27.67,0-6.54-2.29-12.55-6.09-17.3-.94,1.22-1.79,2.6-2.52,4.1,2.6,3.75,4.13,8.29,4.13,13.19,0,12.79-10.4,23.19-23.19,23.19h-49.17c-12.79,0-23.19-10.4-23.19-23.19s10.4-23.19,23.19-23.19h37.02c.6-1.52,1.26-3.02,1.98-4.48h-38.99c-15.26,0-27.67,12.41-27.67,27.67Z"/>
            <path class="cls-1" d="M761.51,39.66c3.55,6.97,5.57,14.85,5.57,23.19,0,28.27-23,51.28-51.28,51.28h-49.17c-28.28,0-51.28-23-51.28-51.28s23-51.28,51.28-51.28h49.17c3.66,0,7.23.39,10.67,1.12,2.05-1.15,4.18-2.13,6.35-2.93-5.37-1.73-11.09-2.67-17.02-2.67h-49.17c-30.74,0-55.76,25.01-55.76,55.76s25.01,55.76,55.76,55.76h49.17c30.74,0,55.76-25.01,55.76-55.76,0-8.27-1.83-16.12-5.07-23.19h-4.97Z"/>
          </g>
        </g>
        <g>
          <path class="cls-1" d="M764.17,90.52h47.56c10.94,0,20.18-12.67,20.18-27.67h-4.48c0,12.35-7.34,23.19-15.7,23.19h-45.25c-.7,1.53-1.47,3.02-2.31,4.48Z"/>
          <path class="cls-1" d="M731.88,62.85h-4.48c0,6.28,1.62,12.14,4.31,16.84,1.17-1.1,2.22-2.33,3.14-3.65-1.85-3.8-2.97-8.38-2.97-13.19Z"/>
          <path class="cls-1" d="M703.79,62.85h-4.48c0,8.11,1.5,16,4.33,23.19h4.9c-3.03-6.97-4.75-14.85-4.75-23.19Z"/>
          <path class="cls-1" d="M855.52,62.85c0,28.27-19.64,51.28-43.79,51.28h-64.15c-2.73,0-5.39-.31-7.99-.87-2.18,1.04-4.45,1.93-6.78,2.68,4.73,1.75,9.71,2.67,14.76,2.67h64.15c13.35,0,26.21-6.41,35.27-17.59,8.38-10.35,13-23.9,13-38.16h-4.48Z"/>
        </g>
      </g>
    </g>
  </g>
</svg>