<?xml version="1.0" encoding="UTF-8"?>
<svg id="_レイヤー_2" data-name="レイヤー 2" xmlns="http://www.w3.org/2000/svg" viewBox="0 0 1051.82 148.4">
  <defs>
    <style>
      .cls-1 {
        stroke: #000;
        stroke-miterlimit: 10;
        stroke-width: .75px;
      }

      .cls-1, .cls-2 {
        fill: #000;
      }

      .cls-2 {
        stroke-width: 0px;
      }
    </style>
  </defs>
  <g id="_レイヤー_1-2" data-name="レイヤー 1">
    <g>
      <g>
        <path class="cls-1" d="M38.74,137.24V27.33H8.05c-5.18,0-7.67-2.7-7.67-7.67v-11.61C.38,2.86,2.86.38,8.05.38h94.97c5.18,0,7.67,2.49,7.67,7.67v11.61c0,4.98-2.49,7.67-7.67,7.67h-30.69v109.9c0,4.98-3.32,8.29-8.5,8.29h-16.59c-5.18,0-8.5-3.32-8.5-8.29Z"/>
        <path class="cls-1" d="M176.22,98.04c-3.53-5.39-4.98-8.5-4.98-13.27v-4.77c0-5.39,3.11-8.71,8.92-8.71h4.56c11.82,0,17-4.56,17-15.35v-14.72c0-10.78-5.18-15.55-17-15.55h-22.4v111.56c0,4.98-3.32,8.29-8.5,8.29h-16.17c-5.18,0-8.5-3.32-8.5-8.29V13.65c0-8.09,5.39-13.27,13.48-13.27h43.75c31.93,0,48.52,14.31,48.52,41.68v12.03c0,18.87-8.5,30.48-25.51,35.05l22.81,32.97c5.39,7.88,2.9,17.83-5.6,22.81-8.09,4.56-18.04,1.87-23.23-6.01l-27.17-40.85Z"/>
        <path class="cls-1" d="M252.95,102.4V8.67c0-4.98,3.11-8.29,8.29-8.29h16.8c4.98,0,8.29,3.32,8.29,8.29v94.56c0,12.65,6.01,19.08,18.04,19.08s18.04-6.43,18.04-19.08V8.67c0-4.98,3.32-8.29,8.29-8.29h16.8c5.18,0,8.29,3.32,8.29,8.29v93.73c0,29.03-18.66,45.62-51.43,45.62s-51.43-16.8-51.43-45.62Z"/>
        <path class="cls-1" d="M383.18,133.71V12.2c0-7.26,4.56-11.82,12.03-11.82h78.38c4.98,0,7.67,2.49,7.67,7.67v11.2c0,5.18-2.7,7.67-7.67,7.67h-57.03v31.31h41.06c8.29,0,13.69,4.77,13.69,13.06v.83c0,8.29-5.39,13.06-13.69,13.06h-41.06v33.8h57.03c4.98,0,7.67,2.49,7.67,7.67v11.2c0,5.18-2.7,7.67-7.67,7.67h-78.38c-7.47,0-12.03-4.56-12.03-11.82Z"/>
        <path class="cls-1" d="M505.94,138.9v-13.48c0-3.94,2.28-6.43,6.43-6.43h24.05V26.92h-24.05c-4.15,0-6.43-2.49-6.43-6.43V7.01c0-4.15,2.28-6.64,6.43-6.64h81.5c4.15,0,6.64,2.49,6.64,6.64v13.48c0,3.94-2.49,6.43-6.64,6.43h-23.85v92.07h23.85c4.15,0,6.64,2.49,6.64,6.43v13.48c0,4.15-2.49,6.64-6.64,6.64h-81.5c-4.15,0-6.43-2.49-6.43-6.64Z"/>
        <path class="cls-1" d="M626.22,133.71V12.2c0-7.26,4.35-11.82,11.82-11.82h35.46c37.53,0,57.44,18.04,57.44,51.84v41.47c0,33.8-19.91,51.84-57.44,51.84h-35.46c-7.47,0-11.82-4.56-11.82-11.82ZM673.29,119.82c16.38,0,24.05-7.46,24.05-23.85v-46.04c0-16.38-7.67-23.85-24.05-23.85h-13.69v93.73h13.69Z"/>
      </g>
      <g>
        <path class="cls-2" d="M998.04,14.21h-78.79c-29.66,0-53.79,28.25-53.79,62.99,0,10.25,2.11,19.92,5.84,28.48h8.91c7.56,0,14.44-2.97,19.55-7.79-3.3-5.78-5.29-12.98-5.29-20.69,0-18.42,11.35-33.99,24.79-33.99h78.79c13.44,0,24.79,15.56,24.79,33.99s-11.35,33.98-24.79,33.98h-58.41c-6.96,12.12-17.5,21.92-30.19,27.93,3.18.69,6.46,1.07,9.81,1.07h78.79c29.66,0,53.79-28.25,53.79-62.98s-24.13-62.99-53.79-62.99Z"/>
        <path class="cls-2" d="M943.19,77.2c0-10.25-2.48-19.92-6.84-28.49h-17.1c-4.69,0-9.12,2.78-12.54,7.24,4.68,5.82,7.49,13.21,7.49,21.24,0,18.74-15.25,33.98-33.98,33.98h-60.39c-18.74,0-33.99-15.25-33.99-33.98s15.25-33.99,33.99-33.99h47.9c2.27-4.61,5.02-8.94,8.22-12.89,4.98-6.15,10.9-11.11,17.38-14.73-4.23-.9-8.61-1.38-13.11-1.38h-60.39c-34.73,0-62.99,28.25-62.99,62.99s28.25,62.98,62.99,62.98h60.39c34.73,0,62.98-28.25,62.98-62.98Z"/>
      </g>
    </g>
  </g>
</svg>